<?xml version="1.0" encoding="UTF-8"?>
<svg width="24px" height="24px" viewBox="0 0 24 24" version="1.1" xmlns="http://www.w3.org/2000/svg" xmlns:xlink="http://www.w3.org/1999/xlink">
    <!-- Generator: sketchtool 59.1 (101010) - https://sketch.com -->
    <title>640844BC-A541-42F6-ACB0-EA232FF35B17</title>
    <desc>Created with sketchtool.</desc>
    <g id="Registro-2021" stroke="none" stroke-width="1" fill="none" fill-rule="evenodd">
        <g id="DS_Registro_1" transform="translate(-32.000000, -628.000000)">
            <g id="atoms/Icons/active/check" transform="translate(32.000000, 628.000000)">
                <circle id="Oval" fill="#77C40B" cx="12" cy="12" r="10"></circle>
                <path d="M10.6514949,16.448936 C10.672357,16.4488048 10.672357,16.4488048 10.6919542,16.4482059 C10.9832524,16.434994 11.2492335,16.2792563 11.4033564,16.0316179 L17.9697945,8.93671443 C18.2284797,8.52149681 18.1016448,7.97525803 17.6867392,7.71702107 C17.2709008,7.45877422 16.7248844,7.58568444 16.4663703,8.0004503 L10.5808247,14.0024922 L10.4110138,13.7782643 L8.5918542,11.3761439 C8.29619233,10.9861245 7.74136603,10.9092191 7.35112037,11.2045058 C6.96114197,11.499944 6.88435435,12.0550929 7.17955746,12.4449287 L9.94549472,16.0977059 C10.1133195,16.3191889 10.3745633,16.448936 10.6514949,16.448936 Z" id="Path" fill="#FFFFFF" fill-rule="nonzero"></path>
            </g>
        </g>
    </g>
</svg>