<?xml version="1.0" encoding="UTF-8"?>
<svg width="24px" height="24px" viewBox="0 0 24 24" version="1.1" xmlns="http://www.w3.org/2000/svg" xmlns:xlink="http://www.w3.org/1999/xlink">
    <!-- Generator: sketchtool 59.1 (101010) - https://sketch.com -->
    <title>818A8ED5-E735-42CE-8750-AE56A894E754</title>
    <desc>Created with sketchtool.</desc>
    <g id="Login-2021" stroke="none" stroke-width="1" fill="none" fill-rule="evenodd">
        <g id="DS2_1-1_Inicio_Sesion_error" transform="translate(-48.000000, -468.000000)" fill-rule="nonzero">
            <g id="atoms/Icons/active/alert" transform="translate(48.000000, 468.000000)">
                <g id="warning" transform="translate(1.000000, 2.000000)">
                    <path d="M21.5466367,14.6056797 L13.7743203,1.59873828 C13.180707,0.6180625 12.1484688,0.0244492187 11,0.0244492187 C9.85153125,0.0244492187 8.81925,0.6180625 8.22563672,1.59873828 L0.453320312,14.6056797 C-0.140164063,15.6251133 -0.153097656,16.8380781 0.427582031,17.8574687 C1.00821875,18.8768164 2.05334766,19.4833203 3.22764063,19.4833203 L18.7722734,19.4833203 C19.9465664,19.4833203 20.9917383,18.8768164 21.572332,17.8574687 C22.1530977,16.8380781 22.1401641,15.6251133 21.5466367,14.6056797 Z" id="Path" fill="#F5333F"></path>
                    <path d="M21.572418,17.8574687 C20.9917813,18.8768164 19.9466523,19.4833203 18.7723594,19.4833203 L11,19.4833203 L11,0.0244921875 C12.1484258,0.0244921875 13.18075,0.618105469 13.7743633,1.59878125 L21.5466797,14.6057227 C22.1401641,15.6251133 22.1530977,16.8380781 21.572418,17.8574687 Z" id="Path" fill="#8A1B22"></path>
                    <path d="M3.22733984,18.1929687 C2.51285547,18.1929687 1.90171094,17.8376172 1.54885156,17.2189102 C1.19603516,16.5995586 1.20230859,15.8831406 1.56900391,15.2543789 L9.33410156,2.25796484 C9.68945312,1.67075391 10.3144766,1.31475781 10.999957,1.31475781 C11.6854375,1.31475781 12.3105039,1.67071094 12.6708828,2.26681641 L20.4372695,15.2644336 C20.7976914,15.8831836 20.8039648,16.5995586 20.4511055,17.2188672 C20.0982891,17.8376172 19.4871016,18.1929687 18.7726172,18.1929687 L3.22733984,18.1929687 L3.22733984,18.1929687 Z" id="Path" fill="#FF7079"></path>
                    <path d="M18.7726602,18.1929687 C19.4871445,18.1929687 20.0982891,17.8376172 20.4511484,17.2189102 C20.8039648,16.5995586 20.7976914,15.8831406 20.4373125,15.2644766 L12.6708828,2.26677344 C12.3104609,1.67075391 11.6854805,1.31471484 10.999957,1.31471484 L10.999957,18.1929687 L18.7726602,18.1929687 Z" id="Path" fill="#F5333F"></path>
                    <path d="M12.2903516,5.28923828 L12.2903516,10.4507305 C12.2903516,11.1604453 11.7096719,11.741082 11,11.741082 C10.2903281,11.741082 9.70960547,11.1604023 9.70960547,10.4507305 L9.70960547,5.28923828 C9.70960547,4.57952344 10.2902852,3.99884375 11,3.99884375 C11.7097148,3.99884375 12.2903516,4.57952344 12.2903516,5.28923828 Z" id="Path" fill="#E1E4FB"></path>
                    <path d="M12.2903516,5.28923828 L12.2903516,10.4507305 C12.2903516,11.1604453 11.7096719,11.741082 11,11.741082 L11,3.99884375 C11.7096719,3.99884375 12.2903516,4.57952344 12.2903516,5.28923828 Z" id="Path" fill="#C5C9F7"></path>
                    <path d="M11,13.0314766 C9.92896094,13.0314766 9.06442969,13.8959648 9.06442969,14.9670469 C9.06442969,16.038 9.92891797,16.9026172 11,16.9026172 C12.071082,16.9026172 12.9355703,16.038043 12.9355703,14.9670469 C12.9355703,13.8960078 12.0709961,13.0314766 11,13.0314766 Z" id="Path" fill="#E1E4FB"></path>
                    <path d="M12.9355703,14.9670039 C12.9355703,16.037957 12.071082,16.9025742 11,16.9025742 L11,13.0314766 C12.0709961,13.0314766 12.9355703,13.8960078 12.9355703,14.9670039 Z" id="Path" fill="#C5C9F7"></path>
                </g>
            </g>
        </g>
    </g>
</svg>