<?xml version="1.0" encoding="UTF-8"?>
<svg width="24px" height="24px" viewBox="0 0 24 24" version="1.1" xmlns="http://www.w3.org/2000/svg" xmlns:xlink="http://www.w3.org/1999/xlink">
    <!-- Generator: sketchtool 59.1 (101010) - https://sketch.com -->
    <title>231AA888-F2D8-4E65-80EC-54F9C196D404</title>
    <desc>Created with sketchtool.</desc>
    <g id="Registro-2021" stroke="none" stroke-width="1" fill="none" fill-rule="evenodd">
        <g id="DS_Registro_3_error" transform="translate(-288.000000, -432.000000)" fill="#636262">
            <g id="atoms/Icons/active/lock" transform="translate(288.000000, 432.000000)">
                <path d="M3.42046073,2.73338348 L20.8671972,20.1899601 L19.74,21.3171573 L16.4614214,18.0385786 L16.2464403,17.9940189 C14.9061334,18.5241403 13.4696746,18.8 12,18.8 C7.21250044,18.8 2.97217094,15.8720937 1.21513989,11.4997133 C1.96607118,9.61719277 3.21156437,7.9652759 4.81352169,6.70729715 L4.99087139,6.56802867 L2.29234387,3.86950116 L3.42046073,2.73338348 Z M6.11,7.97 C4.9,8.89 3.88,10.07 3.18,11.5 C4.83,14.87 8.21,17 12,17 C12.95,17 13.87,16.86 14.75,16.62 L14.75,16.62 L13.7037158,15.5784483 C13.1637158,15.8084483 12.63,15.8846208 12,15.8846208 C9.52,15.8846208 7.58801951,13.9797133 7.58801951,11.4997133 C7.58801951,10.8697133 7.7331143,10.364583 7.9631143,9.81458298 L7.9631143,9.81458298 Z M9.51,11.37 L9.5,11.5 C9.5,12.88 10.62,14 12,14 C12.04,14 12.08,13.99 12.12,13.98 L12.12,13.98 L9.51,11.37 L9.51,11.37 Z" id="Combined-Shape"></path>
                <path d="M8.73663245,4.66378973 C9.79071534,4.35709221 10.8838042,4.2 12,4.2 C16.7874603,4.2 21.0277596,7.1278583 22.7848169,11.5001792 C22.1366823,13.120366 21.1254616,14.5689093 19.8273272,15.7544845 L18.7023918,14.6295491 C19.6600933,13.7713404 20.4408534,12.7433795 21.0000505,11.5870736 L20.9996254,11.4120528 C19.310402,7.96194186 15.8535618,5.8 12,5.8 C11.3906894,5.8 10.7719047,5.8689827 10.0760445,6.00320177 L8.73663245,4.66378973 Z" id="Path"></path>
                <path d="M12,7.2 C14.3729308,7.2 16.2995401,9.12364987 16.2900369,11.4891936 C16.2900369,11.7031523 16.2692901,11.9217039 16.2289156,12.1560729 L14.4214214,10.3485786 C14.1929985,9.79370487 13.6962951,9.2970015 13.0803323,9.02684236 L11.32871,7.25834586 C11.5532171,7.2194199 11.7747483,7.2 12,7.2 Z" id="Path"></path>
            </g>
        </g>
    </g>
</svg>