<?xml version="1.0" encoding="UTF-8"?>
<svg width="88px" height="88px" viewBox="0 0 88 88" version="1.1" xmlns="http://www.w3.org/2000/svg" xmlns:xlink="http://www.w3.org/1999/xlink">
    <!-- Generator: sketchtool 59.1 (101010) - https://sketch.com -->
    <title>087FAB21-5EFA-45B7-B109-AAE0935F78F5</title>
    <desc>Created with sketchtool.</desc>
    <g id="Login-2021" stroke="none" stroke-width="1" fill="none" fill-rule="evenodd">
        <g id="DS2_3_Olvide_contraseña_código_enviado" transform="translate(-136.000000, -232.000000)">
            <g id="atoms/Icons/active/check" transform="translate(136.000000, 232.000000)">
                <circle id="Oval" fill="#77C40B" cx="44" cy="44" r="36.6666667"></circle>
                <path d="M39.0554815,60.3127653 C39.1319758,60.3122843 39.1319758,60.3122843 39.2038321,60.3100884 C40.2719253,60.2616445 41.2471897,59.6906066 41.8123068,58.782599 L65.8892467,32.7679529 C66.8377589,31.2454883 66.3726976,29.2426128 64.851377,28.2957439 C63.3266361,27.3488388 61.324576,27.8141763 60.3766909,29.3349844 L38.7963574,51.3424713 L38.1737172,50.5203024 L31.5034654,41.7125276 C30.4193719,40.2824567 28.3850088,40.00047 26.954108,41.0831879 C25.5241872,42.1664612 25.2426326,44.2020075 26.325044,45.6314053 L36.466814,59.0249215 C37.0821716,59.8370261 38.0400654,60.3127653 39.0554815,60.3127653 Z" id="Path" fill="#FFFFFF" fill-rule="nonzero"></path>
            </g>
        </g>
    </g>
</svg>