<?xml version="1.0" encoding="UTF-8"?>
<svg width="24px" height="24px" viewBox="0 0 24 24" version="1.1" xmlns="http://www.w3.org/2000/svg" xmlns:xlink="http://www.w3.org/1999/xlink">
    <!-- Generator: sketchtool 59.1 (101010) - https://sketch.com -->
    <title>7F87A00A-8F27-43EB-9E53-75B53B5A1A02</title>
    <desc>Created with sketchtool.</desc>
    <g id="Registro-2021" stroke="none" stroke-width="1" fill="none" fill-rule="evenodd">
        <g id="DS_Registro_3_error" transform="translate(-288.000000, -520.000000)" fill="#636262">
            <g id="atoms/Icons/active/unlock" transform="translate(288.000000, 520.000000)">
                <path d="M12,6 C15.79,6 19.17,8.13 20.82,11.5 C19.17,14.87 15.79,17 12,17 C8.21,17 4.83,14.87 3.18,11.5 C4.83,8.13 8.21,6 12,6 Z M12,4.2 C7.21260506,4.2 2.97235628,7.12777831 1.21525509,11.5 C2.97235628,15.8722217 7.21260506,18.8 12,18.8 C16.7873949,18.8 21.0276437,15.8722217 22.7847449,11.5 C21.0276437,7.12777831 16.7873949,4.2 12,4.2 Z M12,9 C13.38,9 14.5,10.12 14.5,11.5 C14.5,12.88 13.38,14 12,14 C10.62,14 9.5,12.88 9.5,11.5 C9.5,10.12 10.62,9 12,9 Z M12,7.2 C9.63045695,7.2 7.7,9.13045695 7.7,11.5 C7.7,13.8695431 9.63045695,15.8 12,15.8 C14.3695431,15.8 16.3,13.8695431 16.3,11.5 C16.3,9.13045695 14.3695431,7.2 12,7.2 Z" id="Shape"></path>
            </g>
        </g>
    </g>
</svg>