<?xml version="1.0" encoding="UTF-8"?>
<svg width="140px" height="34px" viewBox="0 0 140 34" version="1.1" xmlns="http://www.w3.org/2000/svg" xmlns:xlink="http://www.w3.org/1999/xlink">
    <!-- Generator: sketchtool 59.1 (101010) - https://sketch.com -->
    <title>725536C2-99DA-46BF-BF51-763C3EA84E4E</title>
    <desc>Created with sketchtool.</desc>
    <g id="Login-2021" stroke="none" stroke-width="1" fill="none" fill-rule="evenodd">
        <g id="DS2_1_Inicio_Sesion" transform="translate(-164.000000, -116.000000)" fill-rule="nonzero">
            <g id="Logo" transform="translate(60.000000, 88.000000)">
                <g id="atoms/logotype/black/woolworth_movil" transform="translate(104.000000, 28.000000)">
                    <g id="logoww_negro-original-02" transform="translate(0.000000, 0.000000)">
                        <path d="M94.5281734,28.9736163 L94.4891641,29.7965355 L89.7647059,29.7965355 C89.8167183,28.6693076 89.8470588,27.4263566 89.8470588,26.0633965 C89.8470588,24.7775851 89.8167183,23.6589292 89.7647059,22.6945707 L94.1987616,22.6945707 L94.155418,23.5046319 C93.0776058,23.4617715 91.9362229,23.4403413 90.7312693,23.4403413 C90.7572755,24.0060983 90.7659443,24.764727 90.7659443,25.7247995 C91.806192,25.7247995 92.7337461,25.7033693 93.5486068,25.6605089 L93.5486068,26.4748562 C92.6817337,26.4405678 91.7541796,26.4234237 90.7659443,26.4234237 C90.7659443,27.362066 90.7659443,28.2364177 90.8179567,29.055051 C92.1182663,29.055051 93.3578947,29.0293347 94.5281734,28.9736163 Z M99.4216718,28.3178525 C99.4216718,29.3807899 98.6906089,29.9122586 97.228483,29.9122586 C96.6212377,29.9161741 96.0153118,29.855826 95.4210526,29.732245 L95.603096,28.9307559 C96.1351,29.1146167 96.6952881,29.2059736 97.2588235,29.2007763 C98.1256966,29.2007763 98.5591331,28.9779023 98.5591331,28.5235823 C98.565071,28.313493 98.45782,28.1160672 98.2773994,28.0049717 C97.979778,27.8273452 97.6628009,27.683564 97.3325077,27.5763679 C96.8969063,27.4431452 96.4824995,27.2497953 96.101548,27.0020388 C95.7619435,26.772093 95.5566245,26.3932107 95.5510836,25.9862478 C95.5510214,25.5757466 95.7351947,25.1863871 96.05387,24.9233104 C96.4971202,24.6004192 97.0440537,24.4480712 97.5925697,24.4947066 C98.137507,24.4801562 98.6821316,24.5334354 99.2136223,24.65329 L99.0315789,25.437635 C98.5612426,25.2737653 98.0651753,25.1939443 97.5665635,25.2019029 C96.8123839,25.2019029 96.4352941,25.4033467 96.4352941,25.8105203 C96.4326488,26.0065767 96.5284298,26.1911869 96.6910217,26.3034146 C96.9979819,26.4958554 97.3286502,26.6485427 97.6749226,26.7577347 C98.0897725,26.8947705 98.4846725,27.0849756 98.8495356,27.3234917 C99.1870738,27.548172 99.398794,27.9161374 99.4216718,28.3178525 Z M108.658204,27.0020388 C108.664778,27.7500977 108.405531,28.4766924 107.925697,29.055051 C107.433826,29.6496678 106.686207,29.9787677 105.910217,29.9422608 C105.186378,29.9422608 104.713932,29.8222518 104.488545,29.5822336 L104.458204,29.5822336 C104.458204,30.5937386 104.469763,31.4966639 104.492879,32.2910096 L103.39195,32.2910096 C103.478638,31.322365 103.526316,30.1479906 103.526316,28.7035959 C103.556306,27.3416632 103.457632,25.9799365 103.231579,24.6361459 L104.263158,24.4989927 L104.35418,25.0390335 L104.414861,25.0390335 C104.908444,24.5925863 105.569006,24.3717436 106.235294,24.4304161 C106.913556,24.4008632 107.567677,24.6823679 108.00805,25.1933308 C108.440777,25.6975423 108.672026,26.3408711 108.658204,27.0020388 L108.658204,27.0020388 Z M107.613622,27.13062 C107.625151,26.6320835 107.46293,26.1447944 107.15418,25.7505157 C106.843199,25.3581097 106.357117,25.1418114 105.85387,25.1719006 C105.280834,25.1184043 104.716626,25.3399769 104.336842,25.7676599 C104.403302,26.9906094 104.435088,28.0406887 104.432198,28.9178978 C104.789749,29.175787 105.225363,29.3057697 105.667492,29.286497 C106.227908,29.32613 106.771758,29.0885409 107.119505,28.6521634 C107.45179,28.2106968 107.625672,27.6722443 107.613622,27.1220479 L107.613622,27.13062 Z M114.427245,29.7965355 L113.504025,29.8308238 C113.458998,29.6644328 113.435692,29.4930275 113.434675,29.3207853 L113.373994,29.3207853 C112.811849,29.7579502 112.107066,29.9760253 111.393189,29.9336887 C110.975035,29.9438325 110.565686,29.8139389 110.231579,29.5650895 C109.901741,29.3174962 109.718126,28.9238316 109.741796,28.5150102 C109.741261,27.9588733 110.040151,27.4445044 110.526316,27.1649083 C111.031992,26.8277399 111.976883,26.6477263 113.360991,26.6248675 C113.36836,26.5249927 113.36836,26.4247196 113.360991,26.3248448 C113.408614,25.9800573 113.260326,25.6373592 112.975232,25.4333489 C112.613848,25.2615333 112.213764,25.1847706 111.813622,25.210475 C111.203403,25.2089802 110.595183,25.2794837 110.001858,25.4204908 L110.097214,24.6661482 C110.760509,24.5031348 111.442288,24.4253452 112.125697,24.4347021 C112.69175,24.4012154 113.254558,24.5403485 113.73808,24.8333036 C114.145582,25.1672665 114.35842,25.6797743 114.305882,26.2005497 C114.305882,26.3719912 114.305882,26.680586 114.279876,27.13062 C114.25387,27.5806539 114.25387,27.8806766 114.25387,28.0306879 C114.251173,28.6235846 114.309262,29.2152246 114.427245,29.7965355 Z M113.386997,28.7378842 C113.386997,28.1849853 113.356656,27.6878049 113.356656,27.250629 C112.793487,27.2347231 112.230402,27.2850802 111.679257,27.4006403 C111.037771,27.5835113 110.717028,27.9306804 110.717028,28.4421475 C110.717028,28.9393279 111.089783,29.1836321 111.843963,29.1836321 C112.393198,29.2123772 112.935937,29.0551502 113.382663,28.7378842 L113.386997,28.7378842 Z M119.455108,24.6147157 L119.190712,25.4719233 C118.914414,25.3646222 118.620663,25.3079794 118.323839,25.3047678 C117.6709,25.2459389 117.068844,25.6572669 116.893498,26.2819844 C116.893498,27.9535392 116.905057,29.1221989 116.928173,29.7879635 L115.887926,29.7879635 C115.951496,28.64502 115.983282,27.7506668 115.983282,27.1049037 C115.985083,26.2714519 115.892031,25.4404465 115.705882,24.6275738 L116.733127,24.4904206 C116.79192,24.7542424 116.829601,25.0222346 116.84582,25.2919097 L116.893498,25.2919097 C117.209198,24.7787283 117.764475,24.4566836 118.371517,24.4347021 C118.739544,24.44333 119.104434,24.503948 119.455108,24.6147157 L119.455108,24.6147157 Z M124.582663,29.7965355 L123.659443,29.8308238 C123.614416,29.6644328 123.59111,29.4930275 123.590093,29.3207853 L123.529412,29.3207853 C122.971831,29.7539443 122.273965,29.9717857 121.565944,29.9336887 C121.14779,29.9438325 120.738441,29.8139389 120.404334,29.5650895 C120.076327,29.316046 119.893186,28.9233962 119.914551,28.5150102 C119.909494,27.963243 120.199562,27.449876 120.677399,27.1649083 C121.188854,26.8277399 122.133746,26.6477263 123.512074,26.6248675 C123.519443,26.5249927 123.519443,26.4247196 123.512074,26.3248448 C123.559681,25.9810244 123.413341,25.6389862 123.13065,25.4333489 C122.767535,25.2620932 122.366206,25.1853778 121.964706,25.210475 C121.353087,25.20949 120.743493,25.2799842 120.148607,25.4204908 L120.252632,24.6661482 C120.914409,24.5028876 121.594788,24.4250915 122.27678,24.4347021 C122.842834,24.4012154 123.405641,24.5403485 123.889164,24.8333036 C124.296665,25.1672665 124.509504,25.6797743 124.456966,26.2005497 C124.456966,26.3719912 124.456966,26.680586 124.43096,27.13062 C124.404954,27.5806539 124.404954,27.8806766 124.404954,28.0306879 C124.403684,28.6237301 124.463225,29.2153716 124.582663,29.7965355 L124.582663,29.7965355 Z M123.529412,28.7378842 C123.529412,28.1849853 123.499071,27.6878049 123.499071,27.250629 C122.935887,27.2342324 122.372743,27.2845949 121.821672,27.4006403 C121.180186,27.5835113 120.859443,27.9306804 120.859443,28.4421475 C120.859443,28.9393279 121.236533,29.1836321 121.986378,29.1836321 C122.537074,29.2133656 123.081507,29.056091 123.529412,28.7378842 L123.529412,28.7378842 Z M131.881734,29.0421929 L131.812384,29.7536751 C131.533784,29.8517504 131.241154,29.9052832 130.945511,29.9122586 C130.243344,29.9122586 129.757895,29.7451031 129.502167,29.4107921 C129.24644,29.0764812 129.116409,28.4850079 129.116409,27.6235143 C129.116409,27.0706154 129.116409,26.3377029 129.116409,25.4462071 C128.89969,25.4462071 128.574613,25.4462071 128.149845,25.4804954 L128.18452,24.6918644 C128.557276,24.6918644 128.886687,24.7218666 129.181424,24.7218666 C129.181424,24.5032787 129.203096,23.9846681 129.242105,23.1660349 L130.160991,23.0803141 C130.095975,23.8432289 130.0613,24.3918417 130.0613,24.7218666 C130.447059,24.7218666 131.010526,24.7218666 131.751703,24.6661482 L131.712693,25.4804954 C131.006192,25.4804954 130.442724,25.4462071 130.013622,25.4462071 C130.013622,25.9991059 130.013622,26.6162954 130.013622,27.3020615 C129.963087,27.8114978 130.051386,28.3250238 130.26935,28.7893166 C130.502008,29.0605826 130.857297,29.197568 131.214241,29.1536298 C131.444517,29.1412541 131.67272,29.103884 131.894737,29.0421929 L131.881734,29.0421929 Z M134.048916,29.7965355 L132.986997,29.7965355 C133.039009,29.0764812 133.065015,28.2449898 133.065015,27.3020615 C133.077705,26.4163011 133.009523,25.5312157 132.8613,24.6575761 L134.031579,24.5118508 C133.988235,25.2704795 133.962229,26.2005497 133.962229,27.3020615 C133.970898,28.1764132 134.001238,29.0079046 134.053251,29.7965355 L134.048916,29.7965355 Z M134.295975,22.9774492 C134.297969,23.1579848 134.227884,23.3320146 134.100929,23.4617715 C133.956377,23.6030314 133.757593,23.6763541 133.554799,23.6632153 C133.381668,23.6744518 133.212228,23.61025 133.091022,23.4874877 C132.979736,23.3722441 132.918982,23.2182019 132.921981,23.0588839 C132.920557,22.8801468 132.9925,22.7084802 133.121362,22.5831337 C133.268999,22.4439421 133.468123,22.3710722 133.671827,22.3816899 C133.843212,22.3733964 134.010136,22.4372414 134.131269,22.5574175 C134.240062,22.6707745 134.300588,22.8211705 134.300311,22.9774492 L134.295975,22.9774492 Z" id="Shape" fill="#000000"></path>
                        <path d="M138.920743,15.7040429 C137.873069,14.74772 136.258201,14.74772 135.210526,15.7040429 L135.171517,15.7426172 L135.171517,10.4279302 C135.171517,7.26912029 132.887307,5.30611493 129.211765,5.30611493 C128.537765,5.30290163 127.865702,5.37770176 127.209288,5.5289889 L127.209288,2.07015631 C127.208724,1.59989586 127.012839,1.15050927 126.667492,0.827205316 C126.31911,0.498250954 125.848033,0.327448425 125.367183,0.355741146 L119.775851,0.647191724 C118.85405,0.695111901 118.131854,1.44882594 118.133127,2.36160689 C118.133127,3.69027864 118.566563,4.58606056 119.433437,5.0318085 L119.433437,5.88901608 C119.106149,5.53525467 118.644005,5.33318391 118.159133,5.33183116 L117.504644,5.33183116 L117.504644,3.6517043 C117.505366,3.18019424 117.309673,2.72920369 116.963605,2.40483484 C116.617537,2.080466 116.151647,1.91135551 115.675542,1.93728913 L112.429102,2.11301669 C112.372148,2.11932292 112.315678,2.12934553 112.260062,2.14301895 C110.665015,2.39589519 109.854489,3.42883033 109.854489,5.17753379 C109.854489,5.38754965 109.854489,5.64471192 109.854489,5.8461557 C109.724285,5.89735431 109.600628,5.96352876 109.486068,6.04331345 C108.820341,5.49702224 107.984563,5.19428995 107.119505,5.18610587 C106.066559,5.17742867 105.038917,5.50513311 104.189474,6.12046213 C104.137472,6.04997512 104.079469,5.98401547 104.016099,5.92330439 C103.679354,5.59960202 103.224215,5.4248348 102.754799,5.4389821 L97.4625387,5.57184928 C96.5469787,5.6032278 95.814117,6.33355054 95.7894737,7.23911802 C92.6308424,4.73202574 88.1973595,4.5259823 84.8148607,6.72907951 C84.5606185,6.06164606 83.9150629,5.61957478 83.193808,5.6189957 L78.2786378,5.6189957 C77.719874,5.61917844 77.1954489,5.88564766 76.869969,6.33476403 C76.5444892,5.88564766 76.0200641,5.61917844 75.4613003,5.6189957 L72.5139319,5.6189957 C71.8951593,5.6196233 71.3236276,5.94630491 71.0142415,6.47620328 C70.7056319,5.94762686 70.1361085,5.6211496 69.5188854,5.6189957 L62.1504644,5.6189957 L62.0767802,5.6189957 L62.0767802,2.14301895 C62.0768514,1.6830815 61.8900304,1.24240417 61.558298,0.920012432 C61.2265657,0.597620695 60.7777458,0.42055488 60.3126935,0.428603791 L54.7170279,0.5314687 C53.7713758,0.547835589 53.0134775,1.31063245 53.0136223,2.24588386 C53.0136223,3.99030129 53.7244582,4.76178811 54.5393189,5.07466888 L54.5393189,8.932103 C52.8310104,6.59404745 50.0989924,5.20000636 47.1820939,5.17800115 C44.2651954,5.15599593 41.5119862,6.50865622 39.7678019,8.82066601 C38.0578393,6.49259611 35.3088145,5.13340925 32.3993808,5.17753379 C30.3082704,5.16711236 28.2761683,5.86263116 26.6390093,7.14911123 L27.2804954,5.43469607 C27.3151703,5.34897531 27.3498452,5.26325455 27.3801858,5.17324775 C27.8412165,5.10389476 28.2694838,4.89588978 28.6068111,4.57748848 C29.1379707,3.96074112 29.3860296,3.15344734 29.2916409,2.34874877 L29.2916409,2.14301895 C29.2916409,1.1961736 28.5154163,0.428603791 27.5578947,0.428603791 L22.5603715,0.428603791 C21.8776125,0.428323984 21.2582593,0.824317467 20.9783282,1.44010874 C20.6908869,0.843325329 20.0820905,0.46310951 19.4136223,0.462892094 L11.7244582,0.462892094 C11.3015393,0.462448157 10.8930405,0.614879897 10.5758514,0.891495885 C10.2575438,0.613899581 9.84732129,0.461400123 9.42291022,0.462892094 L2.09783282,0.462892094 C1.48060975,0.465046001 0.91108639,0.791523262 0.60247678,1.32009968 C0.115766146,2.10600933 0.100813601,3.09173108 0.563467492,3.89172242 C0.852339396,4.39874338 1.31277737,4.78878729 1.86377709,4.99323416 L7.16904025,19.2143079 C7.4215425,19.8880589 8.07213275,20.3346301 8.79876161,20.3329638 L10.5325077,20.3329638 C11.2430652,20.32805 11.8786569,19.8948912 12.1362229,19.2400242 L14.6501548,12.8581137 L16.9690402,19.2014498 C17.2177655,19.8817473 17.8715481,20.334464 18.603096,20.3329638 L20.549226,20.3329638 C21.2758549,20.3346301 21.9264451,19.8880589 22.1789474,19.2143079 L23.9126935,14.581101 C24.7232198,18.1342264 28.2470588,20.8130001 32.4340557,20.8130001 C35.3434894,20.8571246 38.0925142,19.4979378 39.8024768,17.1698679 C41.510973,19.4996476 44.2609607,20.8593105 47.1708978,20.8130001 C49.3726818,20.8277364 51.5058614,20.0561179 53.1783282,18.6399789 C53.1995342,19.5717264 53.9695822,20.3160556 54.9120743,20.3158197 L61.9944272,20.3158197 C62.4935246,20.3195385 62.9700321,20.1103824 63.3020357,19.7418636 C63.6340392,19.3733449 63.7893287,18.8812163 63.7281734,18.3913887 C63.6154799,17.1441516 63.0866873,16.286944 62.0897833,15.8583403 L62.0897833,10.2393446 C62.1244582,10.2993491 62.1591331,10.3636397 62.1981424,10.4236442 C62.4712074,10.9422548 64.2526316,15.3097274 65.8173375,19.2314521 C66.0788394,19.8858502 66.7181514,20.3158031 67.4297214,20.3158197 L69.7182663,20.3158197 C70.426111,20.3154471 71.0626437,19.8896027 71.3263158,19.2400242 L72.6049536,16.0769282 L73.9659443,19.2871706 C74.2372741,19.9206555 74.8652727,20.3324031 75.5609907,20.3329638 L78.0185759,20.3329638 C78.7338868,20.3333289 79.375994,19.8992493 79.6352941,19.2400242 L81.4470588,14.6282474 C82.2705882,18.1642286 85.7814241,20.8302649 89.9640867,20.8302649 C92.1323484,20.8411955 94.2345155,20.0926104 95.8978328,18.7171275 C95.9788039,19.6032466 96.731825,20.2808554 97.6315789,20.2772453 L104.943653,20.2772453 C105.901175,20.2772453 106.677399,19.5096755 106.677399,18.5628302 C106.681704,18.4943196 106.681704,18.4256109 106.677399,18.3571004 C106.629721,17.0069984 106.083591,16.166935 104.973994,15.7511893 L104.973994,13.8524745 C105.10327,13.1658216 105.302212,12.4938028 105.567802,11.8466088 C106.046722,12.1198018 106.58834,12.2673441 107.141176,12.2752126 L107.344892,12.2752126 L107.344892,12.2752126 C108.287021,12.2682356 109.183705,11.8738081 109.819814,11.1865589 L109.819814,15.7383312 C109.819814,18.545686 111.956656,20.4272567 115.142415,20.4272567 C116.279288,20.4301959 117.40324,20.1889008 118.436533,19.7200604 C118.763317,20.1210407 119.255074,20.3555223 119.775851,20.3586801 L126.710836,20.3586801 C126.91048,20.3633597 127.109161,20.3298878 127.295975,20.2601012 C127.48247,20.3254941 127.678908,20.3588352 127.87678,20.3586801 L134.868111,20.3586801 C135.306116,20.3571843 135.727316,20.1918078 136.047059,19.895788 C137.032715,20.2947446 138.163003,20.0906165 138.942415,19.3728913 C139.457155,18.8986177 139.749476,18.2341805 139.749476,17.5384671 C139.749476,16.8427538 139.457155,16.1783166 138.942415,15.7040429 L138.920743,15.7040429 Z" id="Path" fill="#FFFFFF"></path>
                        <path d="M87.3764706,13.0381273 C87.4718266,15.7340452 88.1263158,17.8342037 90.0681115,17.8342037 C91.8885449,17.8342037 92.5126935,15.5626036 92.4130031,12.8623998 C92.3133127,10.1621959 91.4551084,8.06632334 89.7213622,8.06632334 C88.3256966,8.06632334 87.2767802,10.3422095 87.3721362,13.0381273 L87.3764706,13.0381273 Z M82.9857585,13.0124111 C82.9857585,9.64787133 86.1065015,6.92195122 89.955418,6.92195122 C93.8043344,6.92195122 96.920743,9.64787133 96.920743,13.0124111 C96.920743,16.3769508 93.8043344,19.0985849 89.955418,19.0985849 C86.1065015,19.0985849 82.9857585,16.3726648 82.9857585,13.0124111 L82.9857585,13.0124111 Z" id="Shape" fill="#DB0032"></path>
                        <path d="M2.10216718,2.17730726 L9.42291022,2.17730726 C9.42291022,2.17730726 9.64396285,3.39882806 8.59071207,3.39882806 C7.91021672,3.39882806 7.91021672,4.0588779 8.10092879,4.63320698 L11.1653251,12.7081024 L13.9653251,5.71757457 L13.2024768,3.80600166 C12.7430341,3.30453523 11.7244582,3.85743412 11.7244582,2.17730726 L19.4136223,2.17730726 C19.4136223,2.17730726 19.7126935,3.60455788 18.603096,3.60455788 C17.4241486,3.60455788 17.844582,4.3417564 17.9789474,4.8389368 C18.1133127,5.33611719 20.9696594,12.6823862 20.9696594,12.6823862 L24.0947368,4.77464623 C24.0947368,4.77464623 24.4544892,3.60455788 23.3318885,3.60455788 C22.6643963,3.60455788 22.5603715,2.97022427 22.5603715,2.14301895 L27.5318885,2.14301895 C27.5318885,2.82021294 27.6489164,3.53598127 26.8773994,3.53598127 C26.0105263,3.53598127 25.9195046,4.3074681 25.6941176,4.82179265 L20.549226,18.6185487 L18.603096,18.6185487 L14.7021672,7.93345617 L10.5368421,18.6185487 L8.80309598,18.6185487 L3.44148607,4.22174734 C3.44148607,4.22174734 3.10340557,3.36453976 2.67863777,3.39882806 C2.39772477,3.37616846 2.15069179,3.20624302 2.03150318,2.95368655 C1.91231456,2.70113009 1.93928938,2.40476008 2.10216718,2.17730726 Z" id="Path" fill="#DB0032"></path>
                        <path d="M29.850774,13.0381273 C29.94613,15.7340452 30.6006192,17.8342037 32.5467492,17.8342037 C34.3628483,17.8342037 34.9869969,15.5626036 34.8916409,12.8623998 C34.7962848,10.1621959 33.9034056,8.06632334 32.1956656,8.06632334 C30.8043344,8.06632334 29.755418,10.3422095 29.850774,13.0381273 Z M25.4643963,13.0124111 C25.4643963,9.64787133 28.580805,6.92195122 32.4297214,6.92195122 C36.2786378,6.92195122 39.3993808,9.64787133 39.3993808,13.0124111 C39.3993808,16.3769508 36.2786378,19.0985849 32.4297214,19.0985849 C28.580805,19.0985849 25.4643963,16.3726648 25.4643963,13.0124111 Z" id="Shape" fill="#DB0032"></path>
                        <path d="M44.5486068,13.0381273 C44.6439628,15.7340452 45.2941176,17.8342037 47.244582,17.8342037 C49.0563467,17.8342037 49.6848297,15.5626036 49.5894737,12.8623998 C49.4941176,10.1621959 48.6055728,8.06632334 46.8978328,8.06632334 C45.5021672,8.06632334 44.4532508,10.3422095 44.5486068,13.0381273 Z M40.1622291,13.0124111 C40.1622291,9.64787133 43.2786378,6.92195122 47.1275542,6.92195122 C50.9764706,6.92195122 54.0972136,9.64787133 54.0972136,13.0124111 C54.0972136,16.3769508 50.9764706,19.0985849 47.1275542,19.0985849 C43.2786378,19.0985849 40.1622291,16.3726648 40.1622291,13.0124111 Z" id="Shape" fill="#DB0032"></path>
                        <path d="M54.7603715,2.25445594 L60.3560372,2.14301895 L60.3560372,16.1369327 C60.3560372,18.1899449 61.9380805,16.4841018 61.9380805,18.6014045 L54.8643963,18.6014045 C54.8643963,16.4841018 56.2860681,18.1728007 56.2860681,16.1369327 L56.2860681,4.7146417 C56.2860681,2.44304161 54.7603715,4.7146417 54.7603715,2.2501699 L54.7603715,2.25445594 Z" id="Path" fill="#DB0032"></path>
                        <path d="M62.1634675,7.32912482 L69.5318885,7.32912482 C69.5318885,7.32912482 69.7356037,8.54207355 68.920743,8.54207355 C68.1058824,8.54207355 67.9585139,8.89781469 68.3139319,9.9950404 L69.9393189,13.8224722 L72.5399381,7.32912482 L75.4873065,7.32912482 L78.2829721,13.8696187 L79.8606811,9.34356264 C79.9647059,8.94924715 79.9170279,8.4349226 79.1498452,8.4349226 C78.3826625,8.4349226 78.2829721,7.92917013 78.2829721,7.32912482 L83.1981424,7.32912482 C83.1981424,7.32912482 83.406192,8.1863324 82.7430341,8.38777618 C82.0798762,8.58921997 81.876161,8.81637997 81.5164087,9.67358756 L78.0185759,18.6014045 L75.5696594,18.6014045 L72.5659443,11.5723023 L69.7182663,18.6014045 L67.4297214,18.6014045 C67.4297214,18.6014045 64.1226006,10.3122072 63.7151703,9.60072491 C63.3077399,8.88924262 63.2600619,8.55064562 62.5448916,8.55064562 C62.2154799,8.55064562 62.1634675,7.96345843 62.1634675,7.33341086 L62.1634675,7.32912482 Z" id="Path" fill="#DB0032"></path>
                        <path d="M97.5232198,7.28626444 L102.824149,7.123395 L102.824149,10.5007929 C103.847059,8.94067507 104.8613,6.8748048 107.158514,6.8748048 C108.202472,6.902191 109.050701,7.71673123 109.108978,8.74780337 C109.085293,9.7660676 108.236107,10.5751804 107.206192,10.5607974 C105.996904,10.5607974 105.866873,9.42499736 105.177709,9.70358982 C104.063777,10.1321936 103.474303,12.4895145 103.235913,13.7024632 L103.235913,16.6298271 C103.235913,17.0284286 103.782043,17.187012 104.193808,17.302735 C104.605573,17.4184581 104.943653,17.5384671 104.943653,18.5885464 L97.6099071,18.5885464 C97.6099071,16.8741312 99.0185759,17.7699132 99.0185759,16.5955388 L99.0185759,9.73787812 C99.0185759,7.80916107 97.5145511,9.39499509 97.5145511,7.29055048 L97.5232198,7.28626444 Z" id="Path" fill="#DB0032"></path>
                        <path d="M110.478638,8.60207808 L110.478638,7.44056181 C111.605573,7.23911802 111.605573,6.47191724 111.605573,5.16896172 C111.605573,4.14031262 111.887307,3.93029676 112.554799,3.82743185 L115.801238,3.64741826 L115.801238,7.07624858 L118.189474,7.07624858 L118.189474,8.57207581 L115.757895,8.57207581 L115.757895,15.6483244 C115.757895,17.3927418 117.331269,17.298449 117.925077,16.5355342 L118.583901,17.4313162 C117.582663,19.0257223 111.501548,19.784351 111.501548,15.716901 L111.501548,8.60207808 L110.478638,8.60207808 Z" id="Path" fill="#DB0032"></path>
                        <path d="M119.884211,2.35732085 L125.475542,2.07015631 L125.475542,8.16918825 C125.475542,8.16918825 126.775851,7.02053009 129.211765,7.02053009 C131.647678,7.02053009 133.437771,8.0620373 133.437771,10.4493604 L133.437771,16.286944 C133.437771,17.0198565 133.563467,17.1441516 134.170279,17.3884558 C134.77709,17.6327599 134.84644,17.9327826 134.84644,18.6399789 L127.863777,18.6399789 C127.863777,16.5398203 129.125077,17.8342037 129.125077,16.5741086 L129.125077,10.4793627 C129.125077,8.37491807 126.957895,7.9934607 125.38452,9.66072944 L125.38452,16.4841018 C125.38452,17.7699132 126.68483,16.5912527 126.68483,18.6271207 L119.749845,18.6271207 C119.749845,16.621255 121.206192,18.0613637 121.206192,16.3212323 L121.206192,4.7146417 C121.206192,2.70877596 119.905882,4.53462811 119.905882,2.35732085 L119.884211,2.35732085 Z" id="Path" fill="#DB0032"></path>
                        <path d="M137.0613,18.8114204 C136.702227,18.8147709 136.356365,18.6776604 136.099071,18.429963 C135.845282,18.1979399 135.70098,17.8716774 135.70098,17.529895 C135.70098,17.1881127 135.845282,16.8618502 136.099071,16.6298271 C136.647516,16.1381175 137.483753,16.1381175 138.032198,16.6298271 C138.285987,16.8618502 138.43029,17.1881127 138.43029,17.529895 C138.43029,17.8716774 138.285987,18.1979399 138.032198,18.429963 C137.773037,18.680179 137.423452,18.8175278 137.0613,18.8114204 L137.0613,18.8114204 Z M137.0613,18.5285419 C137.339377,18.534751 137.608205,18.4296549 137.806811,18.2370913 C138.010012,18.0626268 138.125658,17.8088486 138.12322,17.5427532 C138.131818,17.2795435 138.026124,17.0252723 137.832817,16.844129 C137.408767,16.4548213 136.752843,16.4548213 136.328793,16.844129 C136.129594,17.022094 136.015918,17.2751452 136.015918,17.5406101 C136.015918,17.8060751 136.129594,18.0591263 136.328793,18.2370913 C136.525506,18.4244915 136.78815,18.5289926 137.0613,18.5285419 L137.0613,18.5285419 Z M136.510836,18.31424 L136.510836,16.7969826 L136.965944,16.7969826 C137.399381,16.7969826 137.594427,16.9298497 137.594427,17.191298 C137.576283,17.3859365 137.44634,17.5528117 137.260681,17.6199018 L137.642105,18.2970958 L137.295356,18.2970958 L136.965944,17.6970505 L136.818576,17.6970505 L136.818576,18.31424 L136.510836,18.31424 Z M136.814241,17.4870347 L136.944272,17.4870347 C137.165325,17.4870347 137.26935,17.3970279 137.26935,17.2213003 C137.26935,17.0455728 137.165325,17.0069984 136.957276,17.0069984 L136.814241,17.0069984 L136.814241,17.4870347 Z" id="Shape" fill="#DB0032"></path>
                    </g>
                </g>
            </g>
        </g>
    </g>
</svg>